<svg xmlns="http://www.w3.org/2000/svg" viewBox="0 0 64 64">
  <circle cx="28" cy="28" r="20" fill="#667eea"/>
  <ellipse cx="28" cy="28" rx="14" ry="14" fill="#fff"/>
  <ellipse cx="24" cy="26" rx="2.5" ry="3" fill="#333"/>
  <ellipse cx="32" cy="26" rx="2.5" ry="3" fill="#333"/>
  <path d="M24 34 Q28 38 32 34" stroke="#333" stroke-width="2" fill="none"/>
  <rect x="40" y="40" width="14" height="6" rx="3" fill="#764ba2" transform="rotate(45 47 43)"/>
  <ellipse cx="25" cy="25" rx="0.7" ry="1.2" fill="#fff"/>
  <ellipse cx="33" cy="25" rx="0.7" ry="1.2" fill="#fff"/>
  <ellipse cx="28" cy="28" rx="13.5" ry="13" fill="none" stroke="#667eea" stroke-width="2"/>
  <ellipse cx="28" cy="28" rx="10" ry="9.5" fill="none" stroke="#764ba2" stroke-width="1.5"/>
  <ellipse cx="28" cy="28" rx="7" ry="6.5" fill="none" stroke="#667eea" stroke-width="1"/>
  <ellipse cx="28" cy="28" rx="4" ry="3.5" fill="none" stroke="#764ba2" stroke-width="0.8"/>
  <ellipse cx="28" cy="28" rx="1.5" ry="1.2" fill="#fff"/>
  <ellipse cx="36" cy="36" rx="1.2" ry="0.7" fill="#fff"/>
  <ellipse cx="20" cy="36" rx="1.2" ry="0.7" fill="#fff"/>
  <ellipse cx="28" cy="40" rx="2.5" ry="1.2" fill="#ff69b4"/>
</svg> 